<?xml version="1.0" encoding="UTF-8"?>
<svg version="1.1" xmlns="http://www.w3.org/2000/svg" width="256" height="256">
<path d="M0 0 C1.0094165 -0.0103125 2.01883301 -0.020625 3.05883789 -0.03125 C15.70914089 0.11778409 25.36759441 3.964797 34.4375 12.8125 C36.69769408 15.2033891 38.88027313 17.64748341 41.03125 20.13671875 C44.81816285 24.4774964 48.73547611 28.68476123 52.6875 32.875 C53.70070312 33.95297852 53.70070312 33.95297852 54.734375 35.05273438 C58.2304948 39.49204083 58.2304948 39.49204083 62.94915771 41.57553101 C64.36216156 41.58527451 64.36216156 41.58527451 65.80371094 41.59521484 C66.86861755 41.60547699 67.93352417 41.61573914 69.03070068 41.62631226 C70.77120697 41.63726425 70.77120697 41.63726425 72.546875 41.6484375 C74.9817775 41.67651073 77.41667325 41.70517522 79.8515625 41.734375 C83.70735453 41.77563443 87.56302103 41.81250356 91.41894531 41.83886719 C95.12852386 41.86645831 98.83752018 41.91233935 102.546875 41.9609375 C103.6991156 41.96419037 104.8513562 41.96744324 106.03851318 41.97079468 C107.65478607 41.99564438 107.65478607 41.99564438 109.30371094 42.02099609 C110.24889587 42.02908295 111.19408081 42.0371698 112.16790771 42.04550171 C115.61875724 42.55700858 118.32929452 43.95429452 120.8125 46.4375 C121.28561828 53.77083333 121.28561828 53.77083333 119.4375 56.375 C116.19017801 58.49824899 114.04463917 58.57797107 110.17285156 58.61450195 C108.99112366 58.62733719 107.80939575 58.64017242 106.59185791 58.65339661 C105.30857605 58.66078354 104.02529419 58.66817047 102.703125 58.67578125 C100.73107086 58.68788887 100.73107086 58.68788887 98.71917725 58.70024109 C95.93160124 58.71527034 93.14405073 58.72510645 90.35644531 58.73266602 C86.79426372 58.74371295 83.23270984 58.77809129 79.67074966 58.81783772 C76.26490031 58.85035342 72.85911756 58.85478747 69.453125 58.86328125 C68.17794006 58.88078934 66.90275513 58.89829742 65.58892822 58.91633606 C54.66352936 58.88957393 54.66352936 58.88957393 49.8125 54.4375 C48.66974609 53.40882813 48.66974609 53.40882813 47.50390625 52.359375 C46.45009766 51.28429687 46.45009766 51.28429687 45.375 50.1875 C44.60671875 49.40375 43.8384375 48.62 43.046875 47.8125 C40.42534883 45.02598267 37.94044964 42.14012808 35.453125 39.234375 C33.11035299 36.66848184 30.54875634 34.57311471 27.8125 32.4375 C26.8225 32.9325 26.8225 32.9325 25.8125 33.4375 C25.4825 49.6075 25.1525 65.7775 24.8125 82.4375 C8.3125 82.4375 -8.1875 82.4375 -25.1875 82.4375 C-25.5175 65.9375 -25.8475 49.4375 -26.1875 32.4375 C-31.4589783 33.43023049 -31.4589783 33.43023049 -34.5625 37.0625 C-36.83588042 39.82795411 -39.12134182 42.44038644 -41.6875 44.9375 C-44.844416 48.01655485 -47.64881484 51.30532744 -50.4140625 54.73828125 C-54.13391089 58.30245316 -58.21824356 58.69014817 -63.19946289 58.7121582 C-64.98139793 58.72645622 -64.98139793 58.72645622 -66.79933167 58.74104309 C-68.07340378 58.74013168 -69.34747589 58.73922028 -70.66015625 58.73828125 C-71.97535751 58.74256638 -73.29055878 58.7468515 -74.64561462 58.75126648 C-77.42369631 58.758711 -80.20165086 58.7584495 -82.97973633 58.75317383 C-86.53634241 58.7473692 -90.0924294 58.76434197 -93.64894962 58.7875185 C-97.04854041 58.80580097 -100.44801654 58.80207076 -103.84765625 58.80078125 C-105.76180077 58.81459587 -105.76180077 58.81459587 -107.71461487 58.82868958 C-108.8994194 58.82246078 -110.08422394 58.81623199 -111.30493164 58.80981445 C-112.86782677 58.81075859 -112.86782677 58.81075859 -114.46229553 58.8117218 C-117.6022713 58.3805441 -118.954166 57.66138376 -121.1875 55.4375 C-122.1875 52.0625 -122.1875 52.0625 -122.1875 48.4375 C-120.42108828 45.63560554 -119.15700178 43.92225089 -116.1875 42.4375 C-114.51369709 42.40447153 -112.83840676 42.43728845 -111.16552734 42.50195312 C-105.24892488 42.69887604 -99.33643107 42.79989195 -93.41699219 42.86865234 C-90.87171017 42.91411532 -88.32675875 42.98811111 -85.78320312 43.09228516 C-69.95238832 44.11028357 -69.95238832 44.11028357 -56.0534668 37.78149414 C-52.545453 34.31251308 -49.55428421 30.56178198 -46.7099762 26.53749084 C-44.44981433 23.41999105 -41.8795526 20.68577087 -39.25 17.875 C-38.38246094 16.93527344 -37.51492187 15.99554688 -36.62109375 15.02734375 C-35.41646484 13.74537109 -35.41646484 13.74537109 -34.1875 12.4375 C-33.09115234 11.26380859 -33.09115234 11.26380859 -31.97265625 10.06640625 C-22.7207125 0.94830617 -12.40183725 0.10605526 0 0 Z " fill="#008DDE" transform="translate(127.1875,114.5625)"/>
<path d="M0 0 C3.62750303 2.6151766 6.65473494 5.66247264 9.6875 8.9375 C10.37585937 8.34001953 10.37585937 8.34001953 11.078125 7.73046875 C18.11564485 1.65395476 22.31660175 -1.44496986 31.89453125 -1.34375 C37.22119495 -0.80735869 40.3652944 1.50808854 44 5.4375 C46.74182944 9.49946954 47.99230266 12.28704816 48.0625 17.25 C48.09085937 18.15363281 48.11921875 19.05726562 48.1484375 19.98828125 C46.95550575 27.62102255 41.36399787 32.67069494 36.078125 37.83984375 C35.35131531 38.5624086 34.62450562 39.28497345 33.87567139 40.0294342 C31.56993889 42.31847579 29.25395924 44.5968194 26.9375 46.875 C25.36519496 48.43224589 23.79357292 49.99018169 22.22265625 51.54882812 C18.38547131 55.35307108 14.53983536 59.14860302 10.6875 62.9375 C7.83788147 61.64083581 5.76348626 60.26816243 3.54296875 58.06762695 C2.66185425 57.20081047 2.66185425 57.20081047 1.76293945 56.31648254 C1.13991943 55.69255112 0.51689941 55.06861969 -0.125 54.42578125 C-0.77573486 53.77933151 -1.42646973 53.13288177 -2.09692383 52.46684265 C-3.47113482 51.09836853 -4.84274071 49.72727409 -6.21191406 48.35375977 C-8.29628896 46.26623553 -10.39359087 44.19235498 -12.4921875 42.11914062 C-13.82893617 40.78466622 -15.16489947 39.44940456 -16.5 38.11328125 C-17.12302002 37.49947098 -17.74604004 36.88566071 -18.38793945 36.25325012 C-23.83229779 30.75116075 -27.88489368 25.58313416 -27.875 17.5 C-27.66610605 11.44207547 -26.54975219 7.33689195 -22.3125 2.9375 C-15.81155957 -2.36939015 -7.87778799 -2.52683766 0 0 Z " fill="#0067E6" transform="translate(27.3125,65.0625)"/>
<path d="M0 0 C3.63 0 7.26 0 11 0 C11.309375 1.258125 11.61875 2.51625 11.9375 3.8125 C12.94659049 6.52593951 13.57045982 7.72357144 16.02734375 9.3046875 C18.40984146 10.20060178 20.46161247 10.79369995 23 11 C25.72981832 9.64599355 25.72981832 9.64599355 28 8 C31.95451272 8.86806377 34.6339718 10.72396096 37 14 C36.86798506 17.16835865 36.47575689 19.26257683 34.75 21.9375 C33.70381364 24.21937259 33.70381364 24.21937259 34.875 27.5625 C36.37049919 30.74470376 37.92381943 31.72014135 41.1875 32.9375 C42.445625 33.288125 43.70375 33.63875 45 34 C45 37.96 45 41.92 45 46 C42.03 46.66 39.06 47.32 36 48 C35.77668801 49.58129029 35.57195356 51.16521089 35.375 52.75 C35.25898438 53.63171875 35.14296875 54.5134375 35.0234375 55.421875 C34.99767346 58.25591892 35.62141931 59.57559948 37 62 C36.8983337 65.15165531 35.75494542 66.30631823 33.75 68.8125 C31 71 31 71 28.5625 70.875 C27.716875 70.58625 26.87125 70.2975 26 70 C21.37542975 68.91765377 18.227576 68.59796818 14 71 C12.84850387 73.69230761 12.47234304 76.07147318 12 79 C10.56359829 79.19573608 9.12580496 79.38127816 7.6875 79.5625 C6.48673828 79.71912109 6.48673828 79.71912109 5.26171875 79.87890625 C3 80 3 80 0 79 C-0.66796875 77.2578125 -0.66796875 77.2578125 -1.1875 75.125 C-2.06188963 72.5573479 -2.578565 71.30574696 -4.79296875 69.69921875 C-6.92237626 68.79232287 -8.69399417 68.21293178 -11 68 C-13.69519712 69.30027975 -13.69519712 69.30027975 -16 71 C-19.69299926 71 -20.96824348 70.02554329 -23.875 67.6875 C-26 65 -26 65 -25.9375 63.0625 C-25.628125 62.381875 -25.31875 61.70125 -25 61 C-23.27098223 57.10971003 -22.89093294 55.46743024 -23.875 51.25 C-26.13101979 47.7996168 -26.46018487 47.4959839 -30.1875 46.5625 C-32.0746875 46.2840625 -32.0746875 46.2840625 -34 46 C-34 42.04 -34 38.08 -34 34 C-31.03 33.34 -28.06 32.68 -25 32 C-24.855625 31.2575 -24.71125 30.515 -24.5625 29.75 C-24 27 -24 27 -23.25 25.0625 C-22.77221069 22.74745212 -22.77221069 22.74745212 -24.5625 20 C-26 17 -26 17 -25.5 14.9375 C-23.53420173 12.3983439 -21.32884059 10.20627003 -19 8 C-18.278125 8.309375 -17.55625 8.61875 -16.8125 8.9375 C-11.05956905 11.11082947 -7.92556568 10.97518856 -2 9 C-1.34 6.03 -0.68 3.06 0 0 Z M-11.30078125 26.046875 C-15.18105021 30.50695427 -16.68564651 35.94548212 -16.40625 41.859375 C-14.97439867 49.40413007 -11.0992392 54.66141743 -4.8671875 58.94140625 C0.35581545 61.90256483 6.18265432 61.64965282 12 61 C18.30756696 58.60889619 23.26089287 53.73106318 26.1015625 47.63671875 C27.96795606 42.15925939 28.02361532 36.66064717 25.9375 31.23828125 C22.78174482 25.50132415 19.19715003 21.36238875 13 19 C3.12050883 16.49866386 -4.00328147 19.22249406 -11.30078125 26.046875 Z " fill="#00A9D9" transform="translate(211,56)"/>
<path d="M0 0 C1.25899109 -0.01774475 2.51798218 -0.0354895 3.81512451 -0.05377197 C20.30376116 -0.17995027 31.76630094 1.76303399 44.54467773 12.50946045 C47.19055297 14.64678757 50.01334332 16.32877543 52.9375 18.0625 C55.5390625 19.6328125 55.5390625 19.6328125 57.3125 20.9375 C57.3125 21.5975 57.3125 22.2575 57.3125 22.9375 C43.86373721 24.42337017 30.41251626 25.8957164 16.9375 27.125 C16.06794678 27.20862793 15.19839355 27.29225586 14.30249023 27.37841797 C0.34307059 28.60884734 -13.25355027 27.61190866 -27.15795898 26.28344727 C-30.14315025 25.99826607 -33.12906302 25.72197678 -36.11523438 25.44726562 C-38.03390147 25.26873681 -39.95252304 25.08971794 -41.87109375 24.91015625 C-42.75349228 24.82782242 -43.63589081 24.74548859 -44.54502869 24.66065979 C-49.28289768 24.20679671 -53.98193697 23.65350337 -58.6875 22.9375 C-58.6875 20.9375 -58.6875 20.9375 -56.94580078 18.96630859 C-39.77436921 3.01837015 -23.13386997 0.00036359 0 0 Z " fill="#008FDE" transform="translate(127.6875,202.0625)"/>
<path d="M0 0 C5.50252869 4.76816866 9.55143291 10.43219712 10.27734375 17.82421875 C10.51966228 25.54933343 9.46064706 31.08119173 5.3125 37.6875 C-0.52281466 43.52281466 -6.46159851 46.14353554 -14.6875 46.3125 C-22.32334895 46.21832715 -26.63615092 45.16562226 -32.1875 39.94140625 C-38.70486112 33.03998635 -40.56280136 27.56205607 -40.375 18.1015625 C-39.5733896 11.47157644 -36.54653919 6.09834622 -31.6875 1.5625 C-22.10834717 -5.72508825 -10.34997068 -6.19956297 0 0 Z " fill="#0090DD" transform="translate(142,62)"/>
<path d="M0 0 C3.75288365 0.35040656 7.50688388 0.68617985 11.26123047 1.02050781 C13.66886196 1.24099663 16.0764171 1.46232102 18.48388672 1.68457031 C19.59546143 1.78361664 20.70703613 1.88266296 21.85229492 1.98471069 C36.35299682 3.36653213 36.35299682 3.36653213 41.23388672 6.66113281 C43.37557415 9.96290094 43.28452192 12.11918638 42.73388672 15.97363281 C40.86680167 18.33860721 39.41327241 19.63393997 36.73388672 20.97363281 C34.34977416 21.08191761 31.9944219 21.1309332 29.60961914 21.13476562 C28.50932121 21.14221298 28.50932121 21.14221298 27.38679504 21.14981079 C24.95430571 21.16444388 22.52188163 21.17123678 20.08935547 21.17675781 C18.40025327 21.18250893 16.7111511 21.18826667 15.02204895 21.19403076 C11.47701716 21.20454443 7.93200808 21.2103845 4.38696289 21.21386719 C-0.15268033 21.2193485 -4.6920231 21.24336709 -9.23157215 21.27183914 C-12.72231416 21.29047691 -16.21298403 21.29567176 -19.70377159 21.29720306 C-21.37709887 21.30022826 -23.05042493 21.30825231 -24.72370338 21.32138824 C-27.06725419 21.33847061 -29.41007406 21.33656329 -31.75366211 21.33007812 C-32.7879686 21.3439003 -32.7879686 21.3439003 -33.84317017 21.35800171 C-39.52996524 21.30878234 -42.57514967 19.61889471 -46.57861328 15.72363281 C-48.78267235 12.13183284 -48.84935355 10.12921971 -48.26611328 5.97363281 C-40.45166735 -8.81799699 -13.78384258 -1.2916099 0 0 Z " fill="#0082E0" transform="translate(98.26611328125,233.0263671875)"/>
<path d="M0 0 C2.58644464 3.4094043 2.36503115 6.8386449 2 11 C0.66965624 14.2519514 -0.49082869 15.65538365 -3.39697266 17.62231445 C-8.48354699 19.56726221 -13.12518434 19.37162134 -18.5234375 19.29296875 C-20.17540634 19.28660149 -20.17540634 19.28660149 -21.86074829 19.28010559 C-25.36575133 19.2633615 -28.87017179 19.22571614 -32.375 19.1875 C-34.75650209 19.17244769 -37.13801323 19.15876024 -39.51953125 19.14648438 C-45.34655172 19.11347193 -51.17323423 19.06331464 -57 19 C-56.83918945 18.38431152 -56.67837891 17.76862305 -56.51269531 17.13427734 C-55.97784858 14.9077868 -55.7981589 12.91254766 -55.75 10.625 C-55.72421875 9.89539063 -55.6984375 9.16578125 -55.671875 8.4140625 C-56.1069302 5.21329926 -57.45964728 2.8131705 -59 0 C-8.68790676 -6.7755541 -8.68790676 -6.7755541 0 0 Z " fill="#009FDA" transform="translate(202,235)"/>
<path d="M0 0 C3.27908322 2.85465074 6.737174 6.47282692 7.203125 10.953125 C7.3077631 16.08039184 6.95667565 19.61596369 4 24 C-0.70281419 28.35010312 -4.47439596 29.36234551 -10.71875 29.28125 C-15.36484735 28.70844348 -18.08492203 25.89034613 -21.3125 22.75 C-23.9017532 18.53047627 -24.53986367 14.63243259 -23.55859375 9.84765625 C-22.05961144 5.24792195 -20.26772813 2.52183935 -16 0 C-10.37835554 -2.37838804 -5.55268161 -2.50928806 0 0 Z " fill="#00A9D9" transform="translate(225,82)"/>
<path d="M0 0 C2.41015625 0.45703125 2.41015625 0.45703125 4.41015625 2.45703125 C4.41015625 8.64160933 0.64825084 13.4464017 -2.58984375 18.45703125 C0.71015625 19.11703125 4.01015625 19.77703125 7.41015625 20.45703125 C8.69426616 26.8775808 7.0197272 28.86413272 3.78515625 34.20703125 C3.34558594 34.98691406 2.90601563 35.76679687 2.453125 36.5703125 C-0.86761815 42.16980608 -0.86761815 42.16980608 -4.30078125 43.53515625 C-6.58984375 43.45703125 -6.58984375 43.45703125 -8.58984375 42.45703125 C-9.13957095 36.82232742 -7.5403221 34.06715367 -4.58984375 29.45703125 C-6.47703125 29.36421875 -6.47703125 29.36421875 -8.40234375 29.26953125 C-10.546875 29.1640625 -10.546875 29.1640625 -12.58984375 28.45703125 C-14.5 26.22265625 -14.5 26.22265625 -15.58984375 23.45703125 C-14.81640625 20.984375 -14.81640625 20.984375 -13.21484375 18.39453125 C-12.64121094 17.44835937 -12.06757812 16.5021875 -11.4765625 15.52734375 C-10.54263672 14.00753906 -10.54263672 14.00753906 -9.58984375 12.45703125 C-8.99816406 11.34070312 -8.40648438 10.224375 -7.796875 9.07421875 C-7.21292969 7.98367187 -6.62898438 6.893125 -6.02734375 5.76953125 C-5.22103516 4.24779297 -5.22103516 4.24779297 -4.3984375 2.6953125 C-2.58984375 0.45703125 -2.58984375 0.45703125 0 0 Z " fill="#0091DE" transform="translate(130.58984375,1.54296875)"/>
<path d="M0 0 C2.63671875 0.328125 2.63671875 0.328125 4.3671875 2.15625 C4.84800781 2.95546875 5.32882813 3.7546875 5.82421875 4.578125 C6.31277344 5.36703125 6.80132812 6.1559375 7.3046875 6.96875 C8.63671875 9.328125 8.63671875 9.328125 9.6875 11.5625 C10.51435963 13.50695917 10.51435963 13.50695917 12.63671875 14.328125 C12.90484375 13.565 13.17296875 12.801875 13.44921875 12.015625 C15.26309238 7.91054258 15.26309238 7.91054258 17.63671875 6.328125 C19.94140625 6.27734375 19.94140625 6.27734375 22.63671875 7.328125 C24.61518161 9.68728447 26.00641732 12.3052709 27.44921875 15.015625 C28.05926758 16.07813477 28.05926758 16.07813477 28.68164062 17.16210938 C30.99629985 21.37517818 32.15704983 24.3966289 31.63671875 29.328125 C28.66671875 29.823125 28.66671875 29.823125 25.63671875 30.328125 C23.32671875 27.028125 21.01671875 23.728125 18.63671875 20.328125 C17.31671875 22.638125 15.99671875 24.948125 14.63671875 27.328125 C11.9296875 27.77734375 11.9296875 27.77734375 8.63671875 27.328125 C6.72099014 24.89909112 5.3705439 22.83537727 3.94921875 20.140625 C3.38364258 19.13032227 3.38364258 19.13032227 2.80664062 18.09960938 C2.07092265 16.78353446 1.34515951 15.46183587 0.63037109 14.13427734 C-0.22932953 12.57160775 -1.16678047 11.05218971 -2.1171875 9.54296875 C-3.73368782 6.66975345 -3.65807635 4.57087112 -3.36328125 1.328125 C-2.36328125 0.328125 -2.36328125 0.328125 0 0 Z " fill="#0083E1" transform="translate(78.36328125,19.671875)"/>
<path d="M0 0 C1 1 1 1 1.46875 3.7890625 C1 7 1 7 -1.84375 9.3359375 C-3.04960482 10.03824855 -4.26920224 10.71738041 -5.5 11.375 C-6.12003906 11.72949219 -6.74007812 12.08398438 -7.37890625 12.44921875 C-8.90798257 13.31961604 -10.45263275 14.16255124 -12 15 C-11.37738281 15.46664062 -10.75476563 15.93328125 -10.11328125 16.4140625 C-6.21142947 19.34225441 -6.21142947 19.34225441 -5 21 C-4.97265625 23.3046875 -4.97265625 23.3046875 -6 26 C-8.21580918 27.93514767 -10.68937465 29.31778582 -13.25 30.75 C-13.91902344 31.14832031 -14.58804688 31.54664062 -15.27734375 31.95703125 C-18.77818166 33.9860041 -21.88917137 35.66993347 -26 36 C-26.66 35.67 -27.32 35.34 -28 35 C-28.5625 32.375 -28.5625 32.375 -28 29 C-25.2279485 26.60079753 -22.19327746 24.78671477 -19 23 C-19.75796875 22.54560547 -19.75796875 22.54560547 -20.53125 22.08203125 C-21.1809375 21.66308594 -21.830625 21.24414062 -22.5 20.8125 C-23.47453125 20.20341797 -23.47453125 20.20341797 -24.46875 19.58203125 C-26 18 -26 18 -26.453125 15.50390625 C-26 13 -26 13 -24.453125 11.4453125 C-23.72609375 11.00960938 -22.9990625 10.57390625 -22.25 10.125 C-21.02796875 9.3825 -21.02796875 9.3825 -19.78125 8.625 C-18.8634375 8.08875 -17.945625 7.5525 -17 7 C-15.9790625 6.360625 -14.958125 5.72125 -13.90625 5.0625 C-4.75317049 -0.55622208 -4.75317049 -0.55622208 0 0 Z " fill="#009DDB" transform="translate(178,17)"/>
</svg>
