<?xml version="1.0" encoding="UTF-8"?>
<svg version="1.1" xmlns="http://www.w3.org/2000/svg" width="512" height="512">
<path d="M0 0 C0.6276123 0.33870117 1.25522461 0.67740234 1.90185547 1.02636719 C12.5597427 6.87003043 21.78183487 14.11587123 31 22 C32.36705078 23.15242188 32.36705078 23.15242188 33.76171875 24.328125 C38.64430849 28.53925503 42.91172776 33.02089801 47 38 C47.4424707 38.53012695 47.88494141 39.06025391 48.34082031 39.60644531 C55.35010383 48.02221212 61.57924581 56.45947262 67 66 C67.64324219 67.07765625 68.28648437 68.1553125 68.94921875 69.265625 C83.0815036 93.60668563 89.15250145 121.55804345 90.19311523 149.43676758 C90.72546813 160.94416822 93.65372476 168.93412902 102 177 C104.60965605 179.37463517 107.30725417 181.60938595 110.0625 183.8125 C110.79766846 184.40925537 111.53283691 185.00601074 112.2902832 185.62084961 C117.60367343 189.92025593 122.96099663 194.16616636 128.35766602 198.3605957 C129.91014291 199.56728391 131.4551782 200.78352701 133 202 C133.54172852 202.41701172 134.08345703 202.83402344 134.64160156 203.26367188 C140.25371668 207.71100838 142.57139583 212.50993751 143.4375 219.5625 C142.5293603 226.69788332 140.62780514 230.9464097 135.05383301 235.52996826 C131.57209996 238.02201998 127.80591088 239.68483447 123.890625 241.3828125 C123.0419989 241.76436493 122.1933728 242.14591736 121.31903076 242.53903198 C118.63422179 243.74563526 115.94309818 244.93702463 113.25 246.125 C109.6869345 247.69837571 106.13085985 249.28627141 102.578125 250.8828125 C101.76249084 251.23707306 100.94685669 251.59133362 100.10650635 251.95632935 C94.58004394 254.34163956 94.58004394 254.34163956 91 259 C90.54972325 261.32542138 90.54972325 261.32542138 90.59375 263.80859375 C90.56087891 265.17661133 90.56087891 265.17661133 90.52734375 266.57226562 C90.51380859 267.99055664 90.51380859 267.99055664 90.5 269.4375 C90.38878069 281.04402932 90.38878069 281.04402932 87 285 C85.0608782 286.77577858 83.07977656 288.38239601 81 290 C81.28875 290.98097656 81.5775 291.96195312 81.875 292.97265625 C85.85457735 307.1234453 85.25948678 319.86000218 83.75 334.375 C83.64099365 335.48085449 83.5319873 336.58670898 83.41967773 337.72607422 C82.20838219 348.236661 79.13679175 356.8996437 71 364 C61.47291773 370.17269157 52.40328269 370.1574219 41.375 370.16796875 C40.15530518 370.17129715 38.93561035 370.17462555 37.67895508 370.17805481 C35.10026424 370.18310772 32.52156688 370.18546364 29.94287109 370.18530273 C26.04122815 370.18747702 22.13987379 370.20561692 18.23828125 370.22460938 C1.1267447 370.26645257 -13.72698552 369.6407941 -30 364 C-30.00586624 365.00367111 -30.01173248 366.00734222 -30.01777649 367.04142761 C-30.07500248 376.50250807 -30.14776348 385.96335865 -30.23571491 395.42420483 C-30.28043244 400.28807606 -30.31968556 405.15186327 -30.34643555 410.01586914 C-30.37245468 414.71037754 -30.41284731 419.40456282 -30.46318626 424.09887123 C-30.47986437 425.88936658 -30.49137277 427.67991782 -30.49761391 429.47047997 C-30.50724478 431.97960618 -30.53529128 434.48790399 -30.56762695 436.99682617 C-30.56619186 437.73625961 -30.56475677 438.47569305 -30.5632782 439.23753357 C-30.6442689 443.6844112 -31.22194917 446.49949878 -34 450 C-37.91084024 453.76633425 -40.35737004 454.50109947 -45.74900818 454.50793457 C-46.74749482 454.51729451 -46.74749482 454.51729451 -47.76615292 454.52684355 C-49.9895666 454.5427579 -52.21188154 454.53017661 -54.43530273 454.51757812 C-56.03220254 454.52300004 -57.62909733 454.53012309 -59.22598267 454.53881836 C-63.55872074 454.55704807 -67.89107765 454.54998535 -72.22382236 454.53730202 C-76.76007024 454.52717074 -81.29628562 454.53656821 -85.83253479 454.54284668 C-93.45132298 454.55012346 -101.06995606 454.54053538 -108.6887207 454.52148438 C-117.49284125 454.49972335 -126.29659116 454.50676122 -135.1007027 454.52879 C-142.66265037 454.54695247 -150.22448657 454.54949795 -157.78644902 454.53903532 C-162.3015313 454.53280403 -166.81643949 454.53195454 -171.33151054 454.54518127 C-175.57764497 454.55675124 -179.82330253 454.54869336 -184.06938553 454.52560425 C-185.62620439 454.52032291 -187.1830635 454.52182114 -188.73986626 454.53065491 C-190.86845209 454.54161788 -192.99551866 454.52784066 -195.12400818 454.50793457 C-196.31400138 454.50642647 -197.50399458 454.50491837 -198.73004818 454.50336456 C-203.69087947 453.73971213 -206.84623123 451.45151556 -209.9375 447.5625 C-213.16942057 436.72606043 -208.70278814 422.72800681 -206.74593925 411.84128761 C-206.17154363 408.63986942 -205.60669527 405.43689515 -205.04444885 402.23332214 C-203.44629052 393.13345011 -201.83644031 384.03571084 -200.20825195 374.94116211 C-199.20836584 369.35224787 -198.22372294 363.76081612 -197.24815559 358.16760826 C-196.87709645 356.05745154 -196.50046354 353.94826594 -196.11776543 351.84018898 C-191.84583491 328.29069606 -190.01180982 305.89902224 -204 285 C-206.81762085 281.48339244 -209.89124966 278.25886134 -213 275 C-244.85832831 240.35716811 -262.53424078 195.62048976 -261.28515625 148.3515625 C-259.5414315 109.14329138 -246.13431916 70.68969473 -220 41 C-219.27039063 40.16082031 -218.54078125 39.32164063 -217.7890625 38.45703125 C-162.69168816 -23.88999761 -73.20321854 -39.6494552 0 0 Z " fill="#B1E16C" transform="translate(322,58)"/>
<path d="M0 0 C9.68577034 2.64457893 15.63241455 14.34645073 20.38476562 22.50634766 C28.33765469 36.69092429 32.19570717 51.75583567 35.2890625 67.625 C35.83691406 67.03074219 36.38476562 66.43648438 36.94921875 65.82421875 C48.80979174 53.42365219 65.90939162 39.25288727 83.6015625 37.25 C87.29439821 37.62554261 89.29948845 38.26500202 92.0144043 40.83300781 C96.79848546 47.55876068 96.80788748 57.1320025 96.7265625 65.0625 C96.72043945 66.09729492 96.71431641 67.13208984 96.70800781 68.19824219 C96.42361658 82.48343246 93.38323844 96.29343319 88.2890625 109.625 C89.09730469 109.42003906 89.90554688 109.21507812 90.73828125 109.00390625 C91.80691406 108.73449219 92.87554687 108.46507812 93.9765625 108.1875 C95.03230469 107.92066406 96.08804688 107.65382813 97.17578125 107.37890625 C98.20316406 107.13011719 99.23054687 106.88132812 100.2890625 106.625 C101.04445313 106.43164062 101.79984375 106.23828125 102.578125 106.0390625 C113.78773806 104.3269314 127.93841693 104.10281566 138.2890625 109.0625 C140.2890625 110.625 140.2890625 110.625 142.2890625 113.625 C141.9947835 132.1645771 128.38852033 148.68579799 115.73339844 161.15820312 C93.77132762 181.77452481 63.02761031 196.03924966 32.7265625 195.9375 C31.28120117 195.96166992 31.28120117 195.96166992 29.80664062 195.98632812 C20.95449491 195.99229721 12.99492478 194.75607409 6.2890625 188.625 C2.20791666 185.61783991 -0.65555056 185.1480767 -5.7109375 185.625 C-6.3709375 186.285 -7.0309375 186.945 -7.7109375 187.625 C-9.0309375 187.625 -10.3509375 187.625 -11.7109375 187.625 C-11.8965625 188.223125 -12.0821875 188.82125 -12.2734375 189.4375 C-14.35280448 192.6017541 -17.17764745 193.65857746 -20.7109375 194.625 C-41.88986578 197.82181936 -62.31398281 194.5907035 -81.7109375 185.625 C-82.89171875 185.08875 -84.0725 184.5525 -85.2890625 184 C-112.1827974 171.20474287 -132.82055145 151.06628986 -144.91015625 123.93359375 C-146.13261621 120.40933114 -146.27793341 117.30301296 -145.7109375 113.625 C-144.18493803 110.50363744 -142.86482618 109.10247587 -139.640625 107.76831055 C-133.34698743 105.8085052 -127.66131434 105.15074681 -121.0859375 105.25 C-120.13750977 105.25652588 -119.18908203 105.26305176 -118.21191406 105.26977539 C-109.71313831 105.42936001 -99.43772717 105.76160517 -91.7109375 109.625 C-92.03707031 108.73941406 -92.36320312 107.85382813 -92.69921875 106.94140625 C-99.35438274 88.07529241 -104.18387616 64.20810376 -97.7109375 44.625 C-95.91188397 41.54090823 -93.96391382 39.25148816 -90.7109375 37.625 C-70.64119218 37.625 -53.29754312 53.53607224 -39.7109375 66.625 C-39.49179688 65.75101562 -39.27265625 64.87703125 -39.046875 63.9765625 C-33.67317046 43.13707417 -27.41519833 22.93164822 -12.7109375 6.625 C-11.96070313 5.66787109 -11.96070313 5.66787109 -11.1953125 4.69140625 C-7.87155373 0.7375943 -5.00369969 -0.40163476 0 0 Z " fill="#040404" transform="translate(238.7109375,90.375)"/>
<path d="M0 0 C0.6276123 0.33870117 1.25522461 0.67740234 1.90185547 1.02636719 C12.5597427 6.87003043 21.78183487 14.11587123 31 22 C32.36705078 23.15242188 32.36705078 23.15242188 33.76171875 24.328125 C38.64430849 28.53925503 42.91172776 33.02089801 47 38 C47.4424707 38.53012695 47.88494141 39.06025391 48.34082031 39.60644531 C55.35010383 48.02221212 61.57924581 56.45947262 67 66 C67.64324219 67.07765625 68.28648437 68.1553125 68.94921875 69.265625 C83.0815036 93.60668563 89.15250145 121.55804345 90.19311523 149.43676758 C90.72546813 160.94416822 93.65372476 168.93412902 102 177 C104.60965605 179.37463517 107.30725417 181.60938595 110.0625 183.8125 C110.79766846 184.40925537 111.53283691 185.00601074 112.2902832 185.62084961 C117.60367343 189.92025593 122.96099663 194.16616636 128.35766602 198.3605957 C129.91014291 199.56728391 131.4551782 200.78352701 133 202 C133.54172852 202.41701172 134.08345703 202.83402344 134.64160156 203.26367188 C140.25371668 207.71100838 142.57139583 212.50993751 143.4375 219.5625 C142.5293603 226.69788332 140.62780514 230.9464097 135.05383301 235.52996826 C131.57209996 238.02201998 127.80591088 239.68483447 123.890625 241.3828125 C123.0419989 241.76436493 122.1933728 242.14591736 121.31903076 242.53903198 C118.63422179 243.74563526 115.94309818 244.93702463 113.25 246.125 C109.6869345 247.69837571 106.13085985 249.28627141 102.578125 250.8828125 C101.76249084 251.23707306 100.94685669 251.59133362 100.10650635 251.95632935 C94.58004394 254.34163956 94.58004394 254.34163956 91 259 C90.54972325 261.32542138 90.54972325 261.32542138 90.59375 263.80859375 C90.56087891 265.17661133 90.56087891 265.17661133 90.52734375 266.57226562 C90.51380859 267.99055664 90.51380859 267.99055664 90.5 269.4375 C90.38878069 281.04402932 90.38878069 281.04402932 87 285 C85.0608782 286.77577858 83.07977656 288.38239601 81 290 C81.28875 290.98097656 81.5775 291.96195312 81.875 292.97265625 C85.85457735 307.1234453 85.25948678 319.86000218 83.75 334.375 C83.64099365 335.48085449 83.5319873 336.58670898 83.41967773 337.72607422 C82.20838219 348.236661 79.13679175 356.8996437 71 364 C61.47291773 370.17269157 52.40328269 370.1574219 41.375 370.16796875 C40.15530518 370.17129715 38.93561035 370.17462555 37.67895508 370.17805481 C35.10026424 370.18310772 32.52156688 370.18546364 29.94287109 370.18530273 C26.04122815 370.18747702 22.13987379 370.20561692 18.23828125 370.22460938 C1.1267447 370.26645257 -13.72698552 369.6407941 -30 364 C-30.00586624 365.00367111 -30.01173248 366.00734222 -30.01777649 367.04142761 C-30.07500248 376.50250807 -30.14776348 385.96335865 -30.23571491 395.42420483 C-30.28043244 400.28807606 -30.31968556 405.15186327 -30.34643555 410.01586914 C-30.37245468 414.71037754 -30.41284731 419.40456282 -30.46318626 424.09887123 C-30.47986437 425.88936658 -30.49137277 427.67991782 -30.49761391 429.47047997 C-30.50724478 431.97960618 -30.53529128 434.48790399 -30.56762695 436.99682617 C-30.56619186 437.73625961 -30.56475677 438.47569305 -30.5632782 439.23753357 C-30.6442689 443.6844112 -31.22194917 446.49949878 -34 450 C-37.91084024 453.76633425 -40.35737004 454.50109947 -45.74900818 454.50793457 C-46.74749482 454.51729451 -46.74749482 454.51729451 -47.76615292 454.52684355 C-49.9895666 454.5427579 -52.21188154 454.53017661 -54.43530273 454.51757812 C-56.03220254 454.52300004 -57.62909733 454.53012309 -59.22598267 454.53881836 C-63.55872074 454.55704807 -67.89107765 454.54998535 -72.22382236 454.53730202 C-76.76007024 454.52717074 -81.29628562 454.53656821 -85.83253479 454.54284668 C-93.45132298 454.55012346 -101.06995606 454.54053538 -108.6887207 454.52148438 C-117.49284125 454.49972335 -126.29659116 454.50676122 -135.1007027 454.52879 C-142.66265037 454.54695247 -150.22448657 454.54949795 -157.78644902 454.53903532 C-162.3015313 454.53280403 -166.81643949 454.53195454 -171.33151054 454.54518127 C-175.57764497 454.55675124 -179.82330253 454.54869336 -184.06938553 454.52560425 C-185.62620439 454.52032291 -187.1830635 454.52182114 -188.73986626 454.53065491 C-190.86845209 454.54161788 -192.99551866 454.52784066 -195.12400818 454.50793457 C-196.31400138 454.50642647 -197.50399458 454.50491837 -198.73004818 454.50336456 C-203.69087947 453.73971213 -206.84623123 451.45151556 -209.9375 447.5625 C-213.16942057 436.72606043 -208.70278814 422.72800681 -206.74593925 411.84128761 C-206.17154363 408.63986942 -205.60669527 405.43689515 -205.04444885 402.23332214 C-203.44629052 393.13345011 -201.83644031 384.03571084 -200.20825195 374.94116211 C-199.20836584 369.35224787 -198.22372294 363.76081612 -197.24815559 358.16760826 C-196.87709645 356.05745154 -196.50046354 353.94826594 -196.11776543 351.84018898 C-191.84583491 328.29069606 -190.01180982 305.89902224 -204 285 C-206.81762085 281.48339244 -209.89124966 278.25886134 -213 275 C-244.85832831 240.35716811 -262.53424078 195.62048976 -261.28515625 148.3515625 C-259.5414315 109.14329138 -246.13431916 70.68969473 -220 41 C-219.27039063 40.16082031 -218.54078125 39.32164063 -217.7890625 38.45703125 C-162.69168816 -23.88999761 -73.20321854 -39.6494552 0 0 Z M-126 -7 C-126.86286621 -6.75330566 -127.72573242 -6.50661133 -128.61474609 -6.25244141 C-151.69159712 0.52214687 -172.8791587 11.04578103 -191 27 C-191.85078125 27.74121094 -192.7015625 28.48242188 -193.578125 29.24609375 C-196.08471581 31.46434973 -198.54854412 33.72106884 -201 36 C-201.71542969 36.6496875 -202.43085938 37.299375 -203.16796875 37.96875 C-230.66751394 64.01567805 -248.9875673 104.10848851 -250.28860474 141.9238739 C-250.36956135 145.40800948 -250.38607135 148.89003533 -250.375 152.375 C-250.37345917 153.11500244 -250.37191833 153.85500488 -250.37033081 154.61743164 C-250.156752 198.00361035 -233.89843867 236.64243797 -204.1328125 267.96484375 C-189.32754083 284.10054305 -181.29051359 303.82845778 -181.8359375 325.84375 C-182.11310616 331.17594708 -182.51150808 336.16489823 -183.88793945 341.33569336 C-185.34239574 347.12338024 -186.24583121 353.00090979 -187.20703125 358.88671875 C-187.51793953 360.76421562 -187.51793953 360.76421562 -187.83512878 362.67964172 C-188.38622975 366.01027917 -188.93462526 369.34133722 -189.48150635 372.67266846 C-190.23435724 377.25543828 -190.99172209 381.83746337 -191.74923706 386.41946411 C-192.17947056 389.02286 -192.60860863 391.62643715 -193.03665161 394.23019409 C-194.13308735 400.87510996 -195.25851879 407.51265099 -196.43896484 414.14306641 C-196.67351431 415.46880955 -196.90802718 416.79455917 -197.14250183 418.12031555 C-197.58440779 420.60737065 -198.03190823 423.09344076 -198.48603821 425.57829285 C-199.53349477 431.48413785 -200.2561354 437.00128133 -200 443 C-197.23038781 444.3848061 -194.98911946 444.12914913 -191.8885498 444.13371277 C-189.93247047 444.14011024 -189.93247047 444.14011024 -187.93687439 444.14663696 C-186.48330685 444.14628742 -185.02973934 444.14582587 -183.57617188 444.14526367 C-182.05204689 444.14825436 -180.52792266 444.15165668 -179.00379944 444.15544128 C-174.85721758 444.16429367 -170.71065633 444.16661989 -166.56406593 444.16725707 C-163.10706027 444.16820504 -159.65005944 444.17188196 -156.19305563 444.17542917 C-148.04064789 444.18357807 -139.88825119 444.18601296 -131.73583984 444.18530273 C-123.31409119 444.1847015 -114.8924065 444.19526148 -106.47067404 444.2110464 C-99.24942773 444.22410106 -92.02820239 444.22948752 -84.80694437 444.22884732 C-80.48983928 444.22859177 -76.17279102 444.23147467 -71.85569763 444.24202538 C-67.79771328 444.25167181 -63.73984052 444.25180947 -59.68185234 444.24450874 C-58.18946101 444.24345865 -56.69706286 444.24585079 -55.2046833 444.2518692 C-53.17361947 444.25953187 -51.14251798 444.25377109 -49.1114502 444.24723816 C-47.97286812 444.24778293 -46.83428604 444.24832769 -45.66120148 444.24888897 C-42.84563797 444.27109768 -42.84563797 444.27109768 -41 442 C-40.81200709 439.31936573 -40.74818009 436.74290542 -40.77294922 434.06201172 C-40.77265717 433.24241974 -40.77236511 432.42282776 -40.77206421 431.57839966 C-40.77346056 428.86205557 -40.78903599 426.14598382 -40.8046875 423.4296875 C-40.80841655 421.54924672 -40.81126403 419.66880401 -40.81326294 417.7883606 C-40.82090793 412.83334002 -40.84056381 407.87843626 -40.8626709 402.92346191 C-40.88311072 397.8695636 -40.89226066 392.81564646 -40.90234375 387.76171875 C-40.92380891 377.84109445 -40.95795526 367.92055693 -41 358 C-52.46935255 352.6423838 -52.46935255 352.6423838 -63.95703125 347.32421875 C-65.91799966 346.4168525 -67.87860799 345.50871242 -69.83911133 344.6003418 C-71.17728795 343.98133371 -72.51617965 343.36386958 -73.85571289 342.74780273 C-75.82889918 341.8398485 -77.79943643 340.92635764 -79.76953125 340.01171875 C-80.92042236 339.48022217 -82.07131348 338.94872559 -83.25708008 338.40112305 C-86 337 -86 337 -88 335 C-87.625 332.375 -87.625 332.375 -87 330 C-82.2005006 328.384894 -79.05900635 329.91860924 -74.734375 332.015625 C-74.0319014 332.34268936 -73.3294278 332.66975372 -72.60566711 333.00672913 C-71.09803482 333.71045509 -69.59324914 334.42030579 -68.09109497 335.13565063 C-65.73504707 336.25711752 -63.37179255 337.36175214 -61.00561523 338.46166992 C-57.83015531 339.93838025 -54.65701389 341.41987059 -51.48583984 342.90576172 C-45.37050496 345.76615243 -39.22788811 348.56143346 -33.0625 351.3125 C-32.10762695 351.74916992 -31.15275391 352.18583984 -30.16894531 352.63574219 C-18.3265607 357.90507934 -7.36830726 359.46937049 5.546875 359.43359375 C7.01271808 359.43816846 8.47855903 359.4434778 9.94439697 359.44947815 C12.99345708 359.45834201 16.04225426 359.45606033 19.09130859 359.44604492 C22.98039549 359.43450824 26.86858065 359.45487162 30.75754929 359.48396206 C33.7757737 359.50237426 36.79378334 359.50202265 39.81204987 359.49632454 C41.24565149 359.49617223 42.67926851 359.5021409 44.11281586 359.51461601 C56.29530816 359.65331666 56.29530816 359.65331666 66.50726318 353.58811951 C71.72114907 347.77237636 72.46513609 341.84281103 73.125 334.375 C73.2077417 333.45291748 73.2904834 332.53083496 73.37573242 331.58081055 C75.05202927 313.61947572 75.05202927 313.61947572 71.69921875 296.12890625 C70.46648734 292.37561788 69.81079966 288.83186777 71 285 C72.7578125 283.5859375 72.7578125 283.5859375 74.9375 282.1875 C77.45307679 280.32835218 78.80720785 278.9933929 79.41259766 275.87402344 C79.6947686 272.39322861 79.76741468 268.95081542 79.69897461 265.4597168 C79.6359565 259.53090512 80.29979385 254.80193196 84 250 C88.55916644 245.65576262 93.27525806 243.22325911 99.01171875 240.71484375 C100.75586796 239.92905552 102.50000833 239.14324765 104.24414062 238.35742188 C106.97501104 237.141156 109.70751047 235.92863308 112.44067383 234.7175293 C115.09347862 233.53810888 117.74017689 232.34573604 120.38671875 231.15234375 C121.20548996 230.79494614 122.02426117 230.43754852 122.86784363 230.06932068 C128.37692752 227.65425277 128.37692752 227.65425277 132 223 C132.66676878 219.54250051 132.66676878 219.54250051 132 216 C128.66280307 212.28865079 124.8789042 209.08146051 121.0625 205.875 C120.50328857 205.40271973 119.94407715 204.93043945 119.36791992 204.44384766 C115.25410352 200.99310786 111.05278272 197.66828818 106.8125 194.375 C94.56912449 184.81360307 82.72360585 175.46124685 80.46337891 159.12036133 C80.37290937 157.77497707 80.29440221 156.42874626 80.2265625 155.08203125 C80.12663207 153.57539583 80.02602078 152.06880545 79.92480469 150.56225586 C79.87658569 149.78623016 79.8283667 149.01020447 79.77868652 148.21066284 C78.8522256 133.75393559 77.40721824 119.87020857 73 106 C72.75266113 105.20964355 72.50532227 104.41928711 72.25048828 103.60498047 C64.3653459 79.05857678 50.97204356 57.40541199 33 39 C32.09080083 38.0197543 31.18326507 37.03796331 30.27734375 36.0546875 C14.64858562 19.39671847 -5.76719078 7.12641632 -27 -1 C-27.66161133 -1.25378418 -28.32322266 -1.50756836 -29.00488281 -1.76904297 C-58.8082025 -12.9921375 -95.14288487 -15.97534311 -126 -7 Z " fill="#010201" transform="translate(322,58)"/>
<path d="M0 0 C10.13389242 4.03078418 15.86203416 18.7486249 19.98828125 28.0546875 C21.94314686 32.70582502 23.56131115 37.39729095 24.9375 42.25 C25.12473633 42.90887207 25.31197266 43.56774414 25.50488281 44.24658203 C28.70879906 56.62807146 29.41524196 69.33188251 29.375 82.0625 C29.3737915 82.7778894 29.37258301 83.49327881 29.37133789 84.23034668 C29.24169577 112.70260137 22.21083107 142.75271605 2 164 C-8.09259891 159.93616593 -13.91405387 144.44803828 -18 135 C-24.45770246 119.13624646 -27.68608895 102.74090939 -27.41162109 85.65795898 C-27.37483811 83.30213174 -27.3706061 80.94788374 -27.37109375 78.59179688 C-27.24885763 51.64951796 -21.07661347 21.75262398 -1.73046875 1.640625 C-1.15941406 1.09921875 -0.58835938 0.5578125 0 0 Z " fill="#B397F7" transform="translate(236,101)"/>
<path d="M0 0 C15.31915966 4.71358759 27.39424318 13.02036646 39 24 C39.78157471 24.67925537 40.56314941 25.35851074 41.3684082 26.05834961 C46.29435821 30.76955754 48.56041413 34.11959392 48.95703125 41.01953125 C48.94739456 43.61761634 48.89765885 46.21579305 48.8125 48.8125 C48.79520733 51.57322097 48.81501886 54.3331203 48.83984375 57.09375 C48.84446625 58.1118853 48.84446625 58.1118853 48.84918213 59.15058899 C48.91321175 65.1800909 49.66464585 70.91605713 50.875 76.8125 C51.03718018 77.60954346 51.19936035 78.40658691 51.36645508 79.2277832 C55.20960615 96.81708556 62.58918073 115.70269364 75 129 C74.67 129.66 74.34 130.32 74 131 C44.37756884 119.781732 22.13722777 95.50749528 9.09765625 67.02929688 C7.23615032 62.74440189 5.59392853 58.39183365 4 54 C3.41412109 52.45892578 3.41412109 52.45892578 2.81640625 50.88671875 C-1.28038626 39.55676143 -2.16744411 28.4411193 -2.25 16.5 C-2.2593457 15.55592285 -2.26869141 14.6118457 -2.27832031 13.63916016 C-2.25535045 8.69445471 -1.94642444 4.63434389 0 0 Z " fill="#9468E7" transform="translate(151,138)"/>
<path d="M0 0 C8.01589796 23.56865616 -1.47004418 51.12166606 -11.875 72.375 C-24.65163445 97.51852261 -44.07363502 117.72399961 -70 129 C-72.9765625 129.72265625 -72.9765625 129.72265625 -75 130 C-74.63648438 129.46632813 -74.27296875 128.93265625 -73.8984375 128.3828125 C-59.33415258 106.79779537 -48.80454434 82.27059662 -48.984375 55.83203125 C-49.09563188 33.73838698 -49.09563188 33.73838698 -44.61181641 28.21533203 C-42.24688702 25.88607522 -39.68677222 23.94284518 -37 22 C-36.02933594 21.13246094 -35.05867188 20.26492187 -34.05859375 19.37109375 C-25.71688936 11.91798637 -11.95090262 0 0 0 Z " fill="#9468E7" transform="translate(323,138)"/>
<path d="M0 0 C0.87293701 0.00088623 1.74587402 0.00177246 2.64526367 0.00268555 C13.97116501 0.20309896 26.79836303 1.87639069 36.875 7.375 C38.73828125 10.01953125 38.73828125 10.01953125 40.1875 13.1875 C46.49275238 25.82609052 55.12361728 36.24448109 64.875 46.375 C65.46667969 47.02984375 66.05835938 47.6846875 66.66796875 48.359375 C74.68526939 56.99034557 85.48637883 63.06618557 95.875 68.375 C92.13271059 70.80216962 88.37651286 70.72132781 84.0625 70.6875 C83.30912354 70.68186035 82.55574707 70.6762207 81.77954102 70.67041016 C56.72787762 70.1393538 32.76188205 58.25715081 13.875 42.375 C12.99328125 41.65699219 12.1115625 40.93898437 11.203125 40.19921875 C0.24243233 30.88943786 -11.2473067 16.90557483 -14.125 2.375 C-9.44936532 0.00878812 -5.12511223 -0.00936769 0 0 Z " fill="#8450D5" transform="translate(117.125,205.625)"/>
<path d="M0 0 C0.69931641 0.00193359 1.39863281 0.00386719 2.11914062 0.00585938 C6.85217337 0.04555862 11.39812624 0.34760437 16.0625 1.125 C15.54414516 12.52880646 8.24622214 21.80775169 1.0625 30.125 C0.54300781 30.78886719 0.02351563 31.45273438 -0.51171875 32.13671875 C-12.58200759 47.12576761 -31.25401658 57.3539238 -48.9375 64.125 C-49.95585937 64.51558594 -50.97421875 64.90617187 -52.0234375 65.30859375 C-62.24032362 68.96897421 -72.32223016 70.27939019 -83.125 70.375 C-83.86838623 70.3843457 -84.61177246 70.39369141 -85.37768555 70.40332031 C-90.69125978 70.37124022 -90.69125978 70.37124022 -92.9375 68.125 C-92.27105469 67.7846875 -91.60460937 67.444375 -90.91796875 67.09375 C-72.40275197 57.35707656 -57.11866437 43.35996109 -45.25 26.1875 C-44.7770752 25.5063916 -44.30415039 24.8252832 -43.81689453 24.12353516 C-41.03997758 20.02902439 -38.93052249 15.94853855 -36.875 11.4375 C-34.17926767 6.58650002 -31.48427219 5.15616656 -26.37329102 3.5769043 C-22.58538787 2.58256548 -18.7988367 1.77559235 -14.9375 1.125 C-13.76058594 0.92519531 -12.58367187 0.72539062 -11.37109375 0.51953125 C-7.56864985 0.0826179 -3.8213842 -0.02564687 0 0 Z " fill="#8451D5" transform="translate(353.9375,205.875)"/>
<path d="M0 0 C2.45426089 0.08462969 3.85064617 0.20657309 6.0625 1.3125 C7.70233879 4.59217758 7.24095638 7.68388689 7.0625 11.3125 C8.320625 11.250625 9.57875 11.18875 10.875 11.125 C13.43955844 11.14315617 14.77713773 11.1609013 17.0625 12.375 C18.64683618 15.44465135 18.42498449 17.92931143 18.0625 21.3125 C17.0625 23.25 17.0625 23.25 15.0625 24.3125 C12.34367977 24.54845284 9.80292978 24.44727523 7.0625 24.3125 C7.124375 25.570625 7.18625 26.82875 7.25 28.125 C7.23184383 30.68955844 7.2140987 32.02713773 6 34.3125 C2.93034865 35.89683618 0.44568857 35.67498449 -2.9375 35.3125 C-4.8125 34.3125 -4.8125 34.3125 -5.9375 32.3125 C-6.47173546 29.63074378 -6.71321266 27.04880552 -6.9375 24.3125 C-8.030625 24.374375 -9.12375 24.43625 -10.25 24.5 C-13.9375 24.3125 -13.9375 24.3125 -15.8125 23.0625 C-17.12376396 21.02275607 -17.72332164 19.7398548 -17.9375 17.3125 C-17.125 14.625 -17.125 14.625 -15.9375 12.3125 C-12.98085481 10.8341774 -10.19520263 11.25217217 -6.9375 11.3125 C-6.88851562 10.68601562 -6.83953125 10.05953125 -6.7890625 9.4140625 C-6.71429688 8.59679687 -6.63953125 7.77953125 -6.5625 6.9375 C-6.45808594 5.71933594 -6.45808594 5.71933594 -6.3515625 4.4765625 C-5.56278965 0.35410818 -4.04722351 0.32120821 0 0 Z " fill="#6FD6F9" transform="translate(78.9375,351.6875)"/>
<path d="M0 0 C3 1 3 1 3.95703125 2.671875 C4.23933594 3.35765625 4.52164062 4.0434375 4.8125 4.75 C8.01853116 11.53852811 13.24123884 14.43167076 20 17 C20 17.66 20 18.32 20 19 C19.34773438 19.268125 18.69546875 19.53625 18.0234375 19.8125 C10.29759589 23.27659417 6.14734585 27.31488179 2.625 35 C2.41875 35.66 2.2125 36.32 2 37 C-0.75070359 35.6246482 -0.97558764 34.0460845 -2.1875 31.25 C-5.29600947 24.85012756 -8.88925708 22.18773821 -15.4375 19.6875 C-16.283125 19.460625 -17.12875 19.23375 -18 19 C-18 18.34 -18 17.68 -18 17 C-17.33613281 16.78085937 -16.67226563 16.56171875 -15.98828125 16.3359375 C-9.1489658 13.87977458 -5.34823175 11.74419179 -2.0390625 5.05859375 C-1.30630784 3.3947701 -0.64579708 1.69946599 0 0 Z " fill="#6FD6F9" transform="translate(335,0)"/>
<path d="M0 0 C0.99 0.33 1.98 0.66 3 1 C3.680625 2.3921875 3.680625 2.3921875 4.375 3.8125 C6.99335173 8.94849762 10.64220956 11.16304328 16 13 C16 13.66 16 14.32 16 15 C15.46890625 15.23074219 14.9378125 15.46148437 14.390625 15.69921875 C8.66783845 18.34130816 5.37892752 20.89741309 2.75 26.8125 C2.5025 27.534375 2.255 28.25625 2 29 C-1.68523007 27.15738497 -2.75164509 22.74506474 -4 19 C-6.29534258 17.86454438 -6.29534258 17.86454438 -9 17 C-10.66666667 16.33333333 -12.33333333 15.66666667 -14 15 C-14 14.34 -14 13.68 -14 13 C-12.948125 12.608125 -11.89625 12.21625 -10.8125 11.8125 C-6.04107836 9.75518662 -2.90833425 6.94643054 -0.6875 2.1875 C-0.460625 1.465625 -0.23375 0.74375 0 0 Z " fill="#F5C84B" transform="translate(87,50)"/>
<path d="M0 0 C2.5 1.5625 2.5 1.5625 4 4 C3.93913078 7.46954545 3.6274029 9.91947278 1.875 12.9375 C-1.22289358 14.69297303 -3.52844534 14.48723574 -7 14 C-9.5 11.9375 -9.5 11.9375 -11 9 C-10.9375 5.3125 -10.9375 5.3125 -10 2 C-6.2794164 -0.48038907 -4.40203429 -0.46337203 0 0 Z " fill="#FC647C" transform="translate(58,306)"/>
<path d="M0 0 C2.5 1.5625 2.5 1.5625 4 4 C3.93913078 7.46954545 3.6274029 9.91947278 1.875 12.9375 C-1.22289358 14.69297303 -3.52844534 14.48723574 -7 14 C-9.5 11.9375 -9.5 11.9375 -11 9 C-10.9375 5.3125 -10.9375 5.3125 -10 2 C-6.2794164 -0.48038907 -4.40203429 -0.46337203 0 0 Z " fill="#87D147" transform="translate(386,50)"/>
</svg>
